<?xml version="1.0" encoding="utf-8"?>
<!-- Generator: Adobe Illustrator 28.3.0, SVG Export Plug-In . SVG Version: 6.00 Build 0)  -->
<svg version="1.1" id="圖層_1" xmlns="http://www.w3.org/2000/svg" xmlns:xlink="http://www.w3.org/1999/xlink" x="0px" y="0px"
	 viewBox="0 0 40 40" style="enable-background:new 0 0 40 40;" xml:space="preserve">
<style type="text/css">
	.st0{fill:#FFFFFF;}
</style>
<path class="st0" d="M20,0C9,0,0,9,0,20s9,20,20,20s20-9,20-20S31,0,20,0z M21.3,25.1c-4.2-0.1-6.5-5-4.2-8.2l-3.9-3.5l-5,4.4
	c0.2,0.4,0.4,0.9,0.4,1.4c0,1.5-1.3,2.8-2.8,2.8c-1.5,0-2.8-1.3-2.8-2.8s1.3-2.8,2.8-2.8c0.5,0,1,0.2,1.4,0.4l5.1-5.9
	c0.5-0.5,1.3-0.5,1.7,0c0,0,4.1,4.6,4.2,4.8c3.2-2.4,8.2-0.1,8.3,4.1c0,1.1-1.7,1.1-1.6,0c0.2-3.4-4.1-5.2-6.4-2.8
	c-2.4,2.3-0.6,6.6,2.8,6.4C22.5,23.4,22.5,25.2,21.3,25.1z M34.2,26.8c-0.6,0-1.1-0.2-1.5-0.5c-1.1,1.3-2.2,2.7-2.2,2.7
	c-0.4,0.6-1.3,0.5-1.7,0c0,0-4.6-5.1-6.5-7.2c-0.3,0.2-0.6,0.3-1,0.3c-1.2,0-2.2-1-2.2-2.2c0-1.2,1-2.2,2.2-2.2c1.2,0,2.2,1,2.2,2.2
	c0,0.4-0.1,0.7-0.3,1l6.4,5.7l1.9-1.5c-0.1-0.3-0.2-0.7-0.2-1c0-1.5,1.3-2.8,2.8-2.8c1.5,0,2.8,1.3,2.8,2.8S35.7,26.8,34.2,26.8z"/>
</svg>
