<?xml version="1.0" encoding="utf-8"?>
<!-- Generator: Adobe Illustrator 28.3.0, SVG Export Plug-In . SVG Version: 6.00 Build 0)  -->
<svg version="1.1" id="圖層_1" xmlns="http://www.w3.org/2000/svg" xmlns:xlink="http://www.w3.org/1999/xlink" x="0px" y="0px"
	 viewBox="0 0 40 40" style="enable-background:new 0 0 40 40;" xml:space="preserve">
<style type="text/css">
	.st0{fill:#FFFFFF;}
</style>
<path class="st0" d="M20,0C9,0,0,9,0,20s9,20,20,20s20-9,20-20S31,0,20,0z M24.9,26.7c-0.9,4.7-5.2,8.2-10.3,7.6
	c-4.3-0.5-7.8-4-8.2-8.2c-0.6-5.1,2.9-9.4,7.6-10.3c0.9-0.2,1.7,0.5,1.7,1.4v5.7c0,1.2,1,2.1,2.1,2.1h5.7
	C24.4,25.1,25.1,25.9,24.9,26.7z M18.2,20.3v-4.5c0-1.4,1.3-2.3,2.6-1.9c2.8,0.9,5,3.1,5.8,5.8c0.4,1.3-0.6,2.6-1.9,2.6h-4.5
	C19.2,22.3,18.2,21.4,18.2,20.3z M32.3,28.5c0,1.3-1,2.3-2.3,2.3h-4.1c-0.5,0-0.9-0.4-0.9-0.9s0.4-0.9,0.9-0.9H30
	c0.3,0,0.5-0.2,0.5-0.5V10c0-0.3-0.2-0.5-0.5-0.5H15c-0.3,0-0.5,0.2-0.5,0.5v3.7c0,0.5-0.4,0.9-0.9,0.9c-0.5,0-0.9-0.4-0.9-0.9V10
	c0-1.3,1-2.3,2.3-2.3h15c1.3,0,2.3,1,2.3,2.3V28.5z"/>
</svg>
