<?xml version="1.0" encoding="utf-8"?>
<!-- Generator: Adobe Illustrator 28.3.0, SVG Export Plug-In . SVG Version: 6.00 Build 0)  -->
<svg version="1.1" id="圖層_1" xmlns="http://www.w3.org/2000/svg" xmlns:xlink="http://www.w3.org/1999/xlink" x="0px" y="0px"
	 viewBox="0 0 40 40" style="enable-background:new 0 0 40 40;" xml:space="preserve">
<style type="text/css">
	.st0{fill:#FFFFFF;}
</style>
<path class="st0" d="M20,0C9,0,0,9,0,20c0,11,9,20,20,20s20-9,20-20C40,9,31,0,20,0z M12.2,33.6c-0.2,0.3-0.7,0.4-1,0.2
	c-0.3-0.2-0.4-0.6-0.2-0.9l6.2-13.6l-8.9-1.6c-1-0.2-0.9-1.7,0.1-1.7l12.1-0.5c1.7-0.1,2.8,1.9,1.8,3.2
	C22.1,18.8,12.2,33.6,12.2,33.6z M32.1,13.6c0,0-11.5,17.6-11.5,17.6c-0.2,0.3-0.6,0.4-1,0.2c-0.3-0.2-0.4-0.6-0.2-0.9L27,14.2
	l-11-1.8c-1-0.2-0.9-1.7,0.1-1.7l14.2-0.4C32,10.2,33.1,12.2,32.1,13.6z"/>
</svg>
