<?xml version="1.0" encoding="utf-8"?>
<!-- Generator: Adobe Illustrator 28.3.0, SVG Export Plug-In . SVG Version: 6.00 Build 0)  -->
<svg version="1.1" id="圖層_1" xmlns="http://www.w3.org/2000/svg" xmlns:xlink="http://www.w3.org/1999/xlink" x="0px" y="0px"
	 viewBox="0 0 40 40" style="enable-background:new 0 0 40 40;" xml:space="preserve">
<style type="text/css">
	.st0{fill:#FFFFFF;}
</style>
<g>
	<path class="st0" d="M20,8C13.4,8,8,13.4,8,20s5.4,12,12,12s12-5.4,12-12S26.6,8,20,8z M20,27.4c-4.1,0-7.4-3.3-7.4-7.4
		c0-4.1,3.3-7.4,7.4-7.4s7.4,3.3,7.4,7.4C27.4,24.1,24.1,27.4,20,27.4z"/>
	<path class="st0" d="M20,0C9,0,0,9,0,20c0,11,9,20,20,20s20-9,20-20C40,9,31,0,20,0z M20,34c-7.7,0-14-6.3-14-14S12.3,6,20,6
		s14,6.3,14,14S27.7,34,20,34z"/>
</g>
</svg>
