<?xml version="1.0" encoding="utf-8"?>
<!-- Generator: Adobe Illustrator 28.3.0, SVG Export Plug-In . SVG Version: 6.00 Build 0)  -->
<svg version="1.1" id="圖層_1" xmlns="http://www.w3.org/2000/svg" xmlns:xlink="http://www.w3.org/1999/xlink" x="0px" y="0px"
	 viewBox="0 0 40 40" style="enable-background:new 0 0 40 40;" xml:space="preserve">
<style type="text/css">
	.st0{fill:#FFFFFF;}
</style>
<g>
	<path class="st0" d="M27.7,7.8c-0.2-0.2-0.6-0.2-0.8,0l-4.4,4.4c-0.1,0.1-0.2,0.2-0.2,0.4c0,0.2,0.1,0.3,0.2,0.4l4.4,4.4
		c0.2,0.2,0.6,0.2,0.8,0l4.4-4.4c0.1-0.1,0.2-0.2,0.2-0.4c0-0.2-0.1-0.3-0.2-0.4L27.7,7.8z"/>
	<path class="st0" d="M20,0C9,0,0,9,0,20c0,11,9,20,20,20s20-9,20-20C40,9,31,0,20,0z M18.7,30c0,1-0.8,1.7-1.7,1.7H10
		c-1,0-1.7-0.8-1.7-1.7v-6.9c0-1,0.8-1.7,1.7-1.7h6.9c1,0,1.7,0.8,1.7,1.7V30z M18.7,17.1c0,1-0.8,1.7-1.7,1.7H10
		c-1,0-1.7-0.8-1.7-1.7v-6.9c0-1,0.8-1.7,1.7-1.7h6.9c1,0,1.7,0.8,1.7,1.7V17.1z M31.4,30c0,1-0.8,1.7-1.7,1.7h-6.9
		c-1,0-1.7-0.8-1.7-1.7v-6.9c0-1,0.8-1.7,1.7-1.7h6.9c1,0,1.7,0.8,1.7,1.7V30z M33.5,14.4l-4.4,4.4c-0.5,0.5-1.1,0.8-1.8,0.8
		c-0.7,0-1.3-0.3-1.8-0.8L21,14.4c-0.5-0.5-0.8-1.1-0.8-1.8c0-0.7,0.3-1.3,0.8-1.8l4.4-4.4c1-1,2.7-1,3.6,0l4.4,4.4
		C34.5,11.8,34.5,13.4,33.5,14.4z"/>
</g>
</svg>
